<?xml version="1.0" standalone="no"?><!DOCTYPE svg PUBLIC "-//W3C//DTD SVG 1.1//EN" "http://www.w3.org/Graphics/SVG/1.1/DTD/svg11.dtd"><svg t="1598195977557" class="icon" viewBox="0 0 1024 1024" version="1.1" xmlns="http://www.w3.org/2000/svg" p-id="2929" width="128" height="128" xmlns:xlink="http://www.w3.org/1999/xlink"><defs><style type="text/css"></style></defs><path d="M859.654321 398.222222h-82.17284v-126.419753c0-145.382716-120.098765-271.802469-271.802469-271.802469-145.382716 0-271.802469 120.098765-271.802469 271.802469v126.419753h-75.851852c-37.925926 0-69.530864 31.604938-69.530864 69.530864V954.469136c0 37.925926 31.604938 69.530864 69.530864 69.530864h688.987655c37.925926 0 69.530864-31.604938 69.530864-69.530864v-486.71605c6.320988-37.925926-18.962963-63.209877-56.888889-69.530864z m-309.728395 322.370371V828.049383c0 6.320988-6.320988 6.320988-6.320988 6.320987h-56.888889c-6.320988 0-6.320988-6.320988-6.320987-6.320987v-107.45679c-25.283951-12.641975-44.246914-44.246914-44.246914-75.851852 0-44.246914 37.925926-82.17284 82.17284-82.17284 44.246914 0 82.17284 37.925926 82.172839 82.17284-6.320988 37.925926-25.283951 63.209877-50.567901 75.851852z m-202.271605-322.370371v-120.098765c0-88.493827 75.851852-164.345679 164.345679-164.345679 88.493827 0 164.345679 75.851852 164.345679 164.345679v120.098765h-328.691358z" p-id="2930" fill="#ffffff"></path></svg>