<?xml version="1.0" standalone="no"?><!DOCTYPE svg PUBLIC "-//W3C//DTD SVG 1.1//EN" "http://www.w3.org/Graphics/SVG/1.1/DTD/svg11.dtd"><svg t="1611145076004" class="icon" viewBox="0 0 1024 1024" version="1.1" xmlns="http://www.w3.org/2000/svg" p-id="1862" xmlns:xlink="http://www.w3.org/1999/xlink" width="128" height="128"><defs><style type="text/css"></style></defs><path d="M512 0C230.4 0 0 230.4 0 512s230.4 512 512 512 512-230.4 512-512-230.4-512-512-512zM403.2 704L256 851.2c-12.8 12.8-32 12.8-44.8 0s-12.8-32 0-44.8l147.2-147.2c12.8-12.8 32-12.8 44.8 0s12.8 32 0 44.8z m460.8-44.8h-192c-12.8 19.2-76.8 102.4-115.2 153.6-19.2 25.6-51.2 25.6-70.4-12.8-25.6-70.4-64-172.8-64-172.8S307.2 576 236.8 544c-25.6-12.8-32-44.8 0-64C294.4 435.2 384 364.8 384 364.8s6.4-128 6.4-204.8c0-44.8 12.8-51.2 19.2-51.2 6.4 0 19.2 0 44.8 19.2 64 44.8 166.4 115.2 166.4 115.2s108.8-32 172.8-51.2c32-12.8 57.6 12.8 51.2 38.4l-51.2 204.8s64 89.6 102.4 153.6c19.2 38.4 6.4 70.4-32 70.4z" fill="#FF9256" p-id="1863"></path></svg>