<?xml version="1.0" standalone="no"?><!DOCTYPE svg PUBLIC "-//W3C//DTD SVG 1.1//EN" "http://www.w3.org/Graphics/SVG/1.1/DTD/svg11.dtd"><svg t="1594792925724" class="icon" viewBox="0 0 1024 1024" version="1.1" xmlns="http://www.w3.org/2000/svg" p-id="9564" xmlns:xlink="http://www.w3.org/1999/xlink" width="128" height="128"><defs><style type="text/css"></style></defs><path d="M913.31200001 384.08853333L732.144 384.08853334c-23.11242666 0-41.80714667-18.72650667-41.80714667-41.80917334 0-23.08074667 18.69578667-41.80714667 41.80714667-41.80714666l72.72736-1e-8c-65.60416-92.70026667-173.48373333-153.296-295.70453333-153.296-200.11413333 0-362.33813333 162.22506667-362.33813334 362.336 0 200.11306667 162.22506667 362.33706667 362.33813334 362.33706667 200.11306667 0 362.33706667-162.22506667 362.33706666-362.33706667 0-23.08074667 18.69482667-41.80714667 41.80618666-41.80714666 23.08266666 0 41.81024 18.72650667 41.81024001 41.80714666 0 246.29226667-199.68 445.95413333-445.95413333 445.95413334-246.27733332 0-445.95519999-199.6608-445.9552-445.95413334 0-246.2912 199.67786667-445.95306667 445.9552-445.95306667 149.4688 0 281.488 73.69237333 362.33706666 186.59733334l0-75.10858667c0-23.08266666 18.69482667-41.80821333 41.80618667-41.80821333 23.08266666 0 41.81024 18.72554667 41.81024 41.80821333l0 167.232C955.12213333 365.36213333 936.39253333 384.08853333 913.31200001 384.08853333Z" fill="#ffffff" p-id="9565"></path></svg>