<?xml version="1.0" standalone="no"?><!DOCTYPE svg PUBLIC "-//W3C//DTD SVG 1.1//EN" "http://www.w3.org/Graphics/SVG/1.1/DTD/svg11.dtd"><svg t="1611217445065" class="icon" viewBox="0 0 1024 1024" version="1.1" xmlns="http://www.w3.org/2000/svg" p-id="36267" xmlns:xlink="http://www.w3.org/1999/xlink" width="128" height="128"><defs><style type="text/css"></style></defs><path d="M512 512m-512 0a512 512 0 1 0 1024 0 512 512 0 1 0-1024 0Z" fill="#ffffff" opacity=".149" p-id="36268" data-spm-anchor-id="a313x.7781069.0.i51" class="selected"></path><path d="M526.894545 379.298909l-8.494545 54.737455 51.898182-19.549091c9.914182-3.723636 14.429091-5.701818 18.990545-8.820364l25.506909 20.433455c-3.956364 0.837818-16.733091 4.538182-22.667636 6.516363l-46.498909 15.872 8.215273 6.516364c6.516364 5.399273 10.775273 8.238545 16.151272 11.357091l-13.591272 16.709818a114.664727 114.664727 0 0 0-14.475637-13.591273l-17.291636-13.893818-11.054546 3.677091-3.397818 4.258909 21.829818 17.291636c6.516364 5.376 10.472727 7.936 16.151273 11.333819l-13.614545 16.453818a114.664727 114.664727 0 0 0-14.429091-13.614546l-21.853091-17.291636-7.936 9.914182a170.426182 170.426182 0 0 0-14.196364 19.549091l-21.806545-17.268364c5.376-5.12 10.775273-10.775273 16.430545-17.873454l7.936-9.914182-22.109091-17.873455a115.246545 115.246545 0 0 0-16.430545-11.333818l13.591273-16.733091c4.538182 5.12 7.68 8.238545 14.475636 13.614546l22.109091 17.873454 3.677091-4.258909 1.163636-11.357091-17.035636-13.591273a108.218182 108.218182 0 0 0-16.430546-11.357091l13.591273-16.709818c4.258909 4.817455 7.68 8.215273 14.754909 13.591273l8.215273 6.516364 5.678545-48.756364c1.117091-10.193455 1.978182-18.990545 1.978182-23.528727l25.227637 20.410182a128.698182 128.698182 0 0 0-4.235637 20.712727z" fill="#ffffff" p-id="36269" data-spm-anchor-id="a313x.7781069.0.i54" class="selected"></path><path d="M662.714182 590.824727l-51.898182-92.718545c-9.634909-17.850182-21.248-22.690909-36.282182-14.452364-15.010909 8.215273-19.269818 37.701818-9.634909 55.272727l22.970182 62.673455-72.308364 70.027636c-15.872 14.173091-41.378909 18.711273-65.210182-1.698909l-73.704727-80.802909v116.526546c0 8.494545-1.419636 15.313455 7.074909 15.313454h184.855273c9.658182 0 17.012364-9.355636 17.012364-9.355636l69.748363-77.405091v-0.279273c8.238545-10.216727 15.034182-29.207273 7.377455-43.101091z m-81.361455 191.953455v-41.425455a6.888727 6.888727 0 0 0-6.818909-6.795636h-191.069091a6.725818 6.725818 0 0 0-6.818909 6.818909v41.402182c0 3.677091 3.118545 6.795636 6.795637 6.795636h191.092363c3.700364 0 7.098182-3.118545 6.818909-6.795636z" fill="#ffffff" p-id="36270" data-spm-anchor-id="a313x.7781069.0.i52" class="selected"></path><path d="M712.331636 386.397091l-0.558545-0.558546-146.594909-142.894545c-18.432-18.152727-36.864-9.658182-55.575273 8.494545l-192.791273 199.610182c-18.432 18.152727-18.432 33.442909-0.279272 51.595637l0.279272 0.279272 134.981819 140.055273c8.773818 8.797091 20.666182 13.614545 33.442909 13.614546 12.753455 0 24.366545-4.817455 33.442909-13.614546l53.015272-55.552-9.076363-24.948364-60.951273 63.767273a23.901091 23.901091 0 0 1-16.430545 6.818909h-0.302546a22.085818 22.085818 0 0 1-16.151273-6.795636l-132.421818-137.239273c-8.773818-9.076364-5.934545-17.570909 2.862546-26.368l181.457454-188.276363c4.235636-4.235636 13.032727-15.290182 19.269818-15.290182 6.237091 0 20.712727 13.614545 24.948364 18.152727l129.582546 126.161455a22.085818 22.085818 0 0 1-0.302546 31.464727L628.130909 504.087273l9.914182 21.271272 72.866909-73.169454a46.08 46.08 0 0 0 1.419636-65.768727z" fill="#ffffff" p-id="36271" data-spm-anchor-id="a313x.7781069.0.i53" class="selected"></path></svg>