<?xml version="1.0" standalone="no"?><!DOCTYPE svg PUBLIC "-//W3C//DTD SVG 1.1//EN" "http://www.w3.org/Graphics/SVG/1.1/DTD/svg11.dtd"><svg t="1610346978109" class="icon" viewBox="0 0 1024 1024" version="1.1" xmlns="http://www.w3.org/2000/svg" p-id="4114" xmlns:xlink="http://www.w3.org/1999/xlink" width="128" height="128"><defs><style type="text/css"></style></defs><path d="M902.4 889.6l-156.8-156.8c156.8-147.2 166.4-393.6 22.4-553.6S371.2 12.8 211.2 160C51.2 307.2 44.8 553.6 192 713.6c131.2 140.8 342.4 166.4 502.4 60.8l160 163.2c12.8 12.8 32 12.8 44.8 0 12.8-12.8 16-35.2 3.2-48z m-755.2-448c0-182.4 147.2-329.6 329.6-329.6 182.4 0 329.6 147.2 329.6 329.6 0 182.4-147.2 329.6-329.6 329.6C294.4 774.4 147.2 624 147.2 441.6z" p-id="4115" data-spm-anchor-id="a313x.7781069.0.i6" class="selected" fill="#ffffff"></path></svg>