<?xml version="1.0" standalone="no"?><!DOCTYPE svg PUBLIC "-//W3C//DTD SVG 1.1//EN" "http://www.w3.org/Graphics/SVG/1.1/DTD/svg11.dtd"><svg t="1611070132695" class="icon" viewBox="0 0 1024 1024" version="1.1" xmlns="http://www.w3.org/2000/svg" p-id="4598" data-spm-anchor-id="a313x.7781069.0.i14" xmlns:xlink="http://www.w3.org/1999/xlink" width="128" height="128"><defs><style type="text/css"></style></defs><path d="M558.183686 5.55924c17.537602 7.119027 25.74648 26.516375 18.337493 43.334075l-31.275724 71.000293c-5.389263 12.248325-17.907552 20.207237-31.775656 20.197239-4.619368 0-9.128752-0.869881-13.408167-2.619642-8.438846-3.389537-15.107934-9.878649-18.527467-18.007538-3.469526-8.11889-3.399535-17.227645 0.179976-25.296541l31.275724-71.000293c3.549515-8.088894 10.308591-14.488019 18.787431-17.797567s17.987541-3.239557 26.40639 0.189974zM391.856426 225.539165c-91.227527 0-165.437382 75.309704-165.437382 167.877048-0.079989 54.912492 26.376394 106.375456 70.810319 137.721171 21.857012 0.099986 43.024118 5.649228 61.941532 16.127795 40.674439-75.939618 113.674459-128.502431 197.742964-142.380534 0.269963-3.859472 0.399945-7.688949 0.399946-11.468432 0-92.567344-74.229851-167.877048-165.457379-167.877048z m209.931298 243.506708c-89.437772 0-168.996895 57.632121-198.052922 143.460386-4.639366 13.718124-17.33763 22.936864-31.625676 22.96686-10.068623 0.019997-19.607319-4.579374-25.946453-12.518289-11.938368-14.937958-29.815924-23.69676-48.773332-23.896732-3.789482 0.999863-7.718945 1.31982-11.608413 0.939871-30.315855 5.289277-52.982756 32.455563-52.982756 63.821274 0 5.159295 0.619915 10.318589 1.819751 15.367899 2.239694 9.338723 0.469936 19.207374-4.869334 27.146289-5.33927 7.938915-13.738122 13.218193-23.116839 14.528014-57.12219 7.948913-100.216299 55.832367-100.216299 114.46435 0 65.041108 52.212862 115.604195 116.394087 115.604195H841.384967c30.42584 0 59.291894-9.878649 81.318882-32.075615 22.146972-22.346945 34.345304-50.663073 34.345304-81.938797 0-30.86578-11.748394-59.441873-33.065479-81.528854-21.297088-22.076982-49.783194-34.395298-80.189037-35.205186-18.35749-0.479934-32.895503-15.887828-32.565547-34.515281l-0.079989-4.299413c-0.009999-117.10399-93.927158-212.320972-209.361377-212.320971zM391.856426 157.648447c128.142481 0 232.388228 105.76554 232.388228 235.777764 0 2.84961-0.059992 5.749214-0.169977 8.688812 134.231648 10.418576 241.277013 117.963872 252.895425 254.065265 36.115062 7.299002 68.730603 25.256547 94.817036 52.262855 33.525416 34.575273 52.282852 81.158904 52.192865 129.662272 0 49.483235-19.217373 96.32683-54.102603 131.51202-34.665261 34.925225-80.289023 54.382565-128.492433 54.382565H222.799539c-101.076181 0-183.324936-83.598571-183.324936-186.084559 0-80.548987 51.552952-152.079208 126.412717-176.825824 0.899877-42.534185 21.847013-82.058781 56.3223-106.265472-40.544457-43.564044-62.721425-100.326284-62.721425-161.347941 0-130.052219 104.235749-235.827758 232.368231-235.827757z m289.040483 142.150565c-14.058078 0.039995-26.716347-8.138887-31.96563-20.637179a31.59968 31.59968 0 0 1 0.189974-25.286543c3.529517-8.098893 10.298592-14.498018 18.787431-17.787568l72.290117-28.146152c8.468842-3.329545 17.987541-3.28955 26.426387 0.129983 8.438846 3.409534 15.107934 9.908645 18.527467 18.057531 7.139024 16.917687-1.349815 36.185053-18.987404 43.074111l-72.290117 28.166149c-4.129435 1.629777-8.508837 2.429668-12.978225 2.429668zM34.59527 551.434609c-14.058078 0.039995-26.716347-8.138887-31.96563-20.62718-7.149023-16.917687 1.339817-36.185053 18.977406-43.064113l74.489816-29.006034c4.119437-1.60978 8.528834-2.439666 12.978225-2.439666 14.108071 0 26.656356 8.098893 31.96563 20.627179 3.469526 8.18888 3.399535 17.177651-0.179975 25.306541-3.529517 8.098893-10.308591 14.488019-18.79743 17.76757l-74.479818 29.006035a35.69112 35.69112 0 0 1-12.988224 2.429668z m76.089597-254.535201c-4.619368 0-9.128752-0.869881-13.408167-2.609643l-74.049876-29.9859c-17.527604-7.119027-25.736481-26.496377-18.347491-43.314078 3.549515-8.088894 10.308591-14.498018 18.787431-17.797567 8.478841-3.299549 17.987541-3.229558 26.40639 0.189974l74.069873 29.9859c8.478841 3.43953 15.06794 9.838655 18.527467 18.017537 3.469526 8.18888 3.389537 17.177651-0.179975 25.30654-5.399262 12.258324-17.927549 20.217236-31.805652 20.207237z m169.726795-159.22823c-14.048079 0.039995-26.706349-8.128889-31.965629-20.617181l-30.255864-71.400239c-7.139024-16.927686 1.349815-36.195051 18.977406-43.094108C241.287012 0.94987 245.696409 0.129982 250.1458 0.129982c14.048079-0.039995 26.706349 8.11889 31.96563 20.607183l30.255864 71.420235c3.469526 8.11889 3.399535 17.227645-0.189974 25.296542-3.539516 8.098893-10.308591 14.498018-18.797431 17.777569a35.713117 35.713117 0 0 1-12.968227 2.439667z" p-id="4599" data-spm-anchor-id="a313x.7781069.0.i15" class="selected" fill="#515151"></path></svg>